# This file uses centimeters as units for non-parametric coordinates.

mtllib 4.mtl
g shellDeformer1Set tweakSet1 vectorAdjust1Set
v 7.582696 10.577418 0.000000
v 4.580597 10.577418 0.000000
v 4.188047 9.745756 0.000000
v 3.740637 8.895654 0.000000
v 3.238366 8.027110 0.000000
v 2.681236 7.140126 0.000000
v 1.509347 5.456517 0.000000
v 0.331927 3.990505 0.000000
v 0.331927 1.814536 0.000000
v 4.809258 1.814536 0.000000
v 4.809258 0.000000 0.000000
v 7.575320 0.000000 0.000000
v 7.575320 1.814536 0.000000
v 9.080057 1.814536 0.000000
v 9.080057 3.909367 0.000000
v 7.582696 3.909367 0.000000
v 4.801882 3.909367 0.000000
v 2.935713 3.909367 0.000000
v 3.497684 4.703226 0.000000
v 3.996037 5.484178 0.000000
v 4.430769 6.252221 0.000000
v 4.801882 7.007355 0.000000
v 7.582696 10.577418 0.625000
v 4.580597 10.577418 0.625000
v 4.188047 9.745756 0.625000
v 3.740637 8.895654 0.625000
v 3.238366 8.027110 0.625000
v 2.681236 7.140126 0.625000
v 1.509347 5.456517 0.625000
v 0.331927 3.990505 0.625000
v 0.331927 1.814536 0.625000
v 4.809258 1.814536 0.625000
v 4.809258 0.000000 0.625000
v 7.575320 0.000000 0.625000
v 7.575320 1.814536 0.625000
v 9.080057 1.814536 0.625000
v 9.080057 3.909367 0.625000
v 7.582696 3.909367 0.625000
v 4.801882 3.909367 0.625000
v 2.935713 3.909367 0.625000
v 3.497684 4.703226 0.625000
v 3.996037 5.484178 0.625000
v 4.430769 6.252221 0.625000
v 4.801882 7.007355 0.625000
v 7.582696 10.577418 1.250000
v 4.580597 10.577418 1.250000
v 4.188047 9.745756 1.250000
v 3.740637 8.895654 1.250000
v 3.238366 8.027110 1.250000
v 2.681236 7.140126 1.250000
v 1.509347 5.456517 1.250000
v 0.331927 3.990505 1.250000
v 0.331927 1.814536 1.250000
v 4.809258 1.814536 1.250000
v 4.809258 0.000000 1.250000
v 7.575320 0.000000 1.250000
v 7.575320 1.814536 1.250000
v 9.080057 1.814536 1.250000
v 9.080057 3.909367 1.250000
v 7.582696 3.909367 1.250000
v 4.801882 3.909367 1.250000
v 2.935713 3.909367 1.250000
v 3.497684 4.703226 1.250000
v 3.996037 5.484178 1.250000
v 4.430769 6.252221 1.250000
v 4.801882 7.007355 1.250000
v 7.582696 10.577418 1.875000
v 4.580597 10.577418 1.875000
v 4.188047 9.745756 1.875000
v 3.740637 8.895654 1.875000
v 3.238366 8.027110 1.875000
v 2.681236 7.140126 1.875000
v 1.509347 5.456517 1.875000
v 0.331927 3.990505 1.875000
v 0.331927 1.814536 1.875000
v 4.809258 1.814536 1.875000
v 4.809258 0.000000 1.875000
v 7.575320 0.000000 1.875000
v 7.575320 1.814536 1.875000
v 9.080057 1.814536 1.875000
v 9.080057 3.909367 1.875000
v 7.582696 3.909367 1.875000
v 4.801882 3.909367 1.875000
v 2.935713 3.909367 1.875000
v 3.497684 4.703226 1.875000
v 3.996037 5.484178 1.875000
v 4.430769 6.252221 1.875000
v 4.801882 7.007355 1.875000
v 7.582696 10.577418 2.500000
v 4.580597 10.577418 2.500000
v 4.188047 9.745756 2.500000
v 3.740637 8.895654 2.500000
v 3.238366 8.027110 2.500000
v 2.681236 7.140126 2.500000
v 1.509347 5.456517 2.500000
v 0.331927 3.990505 2.500000
v 0.331927 1.814536 2.500000
v 4.809258 1.814536 2.500000
v 4.809258 0.000000 2.500000
v 7.575320 0.000000 2.500000
v 7.575320 1.814536 2.500000
v 9.080057 1.814536 2.500000
v 9.080057 3.909367 2.500000
v 7.582696 3.909367 2.500000
v 4.801882 3.909367 2.500000
v 2.935713 3.909367 2.500000
v 3.497684 4.703226 2.500000
v 3.996037 5.484178 2.500000
v 4.430769 6.252221 2.500000
v 4.801882 7.007355 2.500000
vt 0.820473 0.998008
vt 0.820473 0.955341
vt 0.852537 0.955341
vt 0.852537 0.998008
vt 0.820473 0.911728
vt 0.852537 0.911728
vt 0.884602 0.955341
vt 0.884602 0.998008
vt 0.820473 0.867169
vt 0.852537 0.867169
vt 0.884602 0.911728
vt 0.916667 0.955341
vt 0.916667 0.998008
vt 0.820473 0.821663
vt 0.852537 0.821663
vt 0.884602 0.867169
vt 0.916667 0.911728
vt 0.948731 0.955341
vt 0.948731 0.998008
vt 0.820473 0.735289
vt 0.852537 0.735289
vt 0.884602 0.821663
vt 0.916667 0.867169
vt 0.948731 0.911728
vt 0.820473 0.660077
vt 0.852537 0.660077
vt 0.884602 0.735289
vt 0.916667 0.821663
vt 0.948731 0.867169
vt 0.820473 0.548443
vt 0.852537 0.548443
vt 0.884602 0.660077
vt 0.916667 0.735289
vt 0.948731 0.821663
vt 0.884602 0.548443
vt 0.916667 0.660077
vt 0.948731 0.735289
vt 0.916667 0.548443
vt 0.948731 0.660077
vt 0.948731 0.548443
vt 0.094985 0.822404
vt 0.001894 0.822404
vt 0.001894 0.790339
vt 0.094985 0.790339
vt 0.001894 0.758275
vt 0.094985 0.758275
vt 0.001894 0.726210
vt 0.094985 0.726210
vt 0.001894 0.694146
vt 0.094985 0.694146
vt 0.102126 0.706255
vt 0.195218 0.706255
vt 0.195218 0.738320
vt 0.102126 0.738320
vt 0.195218 0.770384
vt 0.102126 0.770384
vt 0.195218 0.802449
vt 0.102126 0.802449
vt 0.195218 0.834513
vt 0.102126 0.834513
vt 0.285545 0.711175
vt 0.393017 0.711175
vt 0.393017 0.743239
vt 0.285545 0.743239
vt 0.393017 0.775304
vt 0.285545 0.775304
vt 0.393017 0.807368
vt 0.285545 0.807368
vt 0.393017 0.839433
vt 0.285545 0.839433
vt 0.814640 0.548443
vt 0.814640 0.890536
vt 0.782576 0.890536
vt 0.782576 0.548443
vt 0.750511 0.890536
vt 0.750511 0.548443
vt 0.718447 0.890536
vt 0.718447 0.548443
vt 0.686382 0.890536
vt 0.686382 0.548443
vt 0.546459 0.629236
vt 0.546459 0.668639
vt 0.514395 0.668639
vt 0.514395 0.629236
vt 0.546459 0.707380
vt 0.514395 0.707380
vt 0.482330 0.668639
vt 0.482330 0.629236
vt 0.546459 0.589171
vt 0.514395 0.589171
vt 0.482330 0.707380
vt 0.450265 0.668639
vt 0.450265 0.629236
vt 0.482330 0.589171
vt 0.546459 0.548443
vt 0.514395 0.548443
vt 0.450265 0.707380
vt 0.418201 0.668639
vt 0.418201 0.629236
vt 0.450265 0.589171
vt 0.482330 0.548443
vt 0.418201 0.707380
vt 0.418201 0.589171
vt 0.450265 0.548443
vt 0.418201 0.548443
vt 0.284110 0.707380
vt 0.284110 0.548443
vt 0.316175 0.548443
vt 0.316175 0.707380
vt 0.348239 0.548443
vt 0.348239 0.707380
vt 0.380304 0.548443
vt 0.380304 0.707380
vt 0.412368 0.548443
vt 0.412368 0.707380
vt 0.278278 0.548443
vt 0.278278 0.702461
vt 0.246213 0.702461
vt 0.246213 0.548443
vt 0.214149 0.702461
vt 0.214149 0.548443
vt 0.182084 0.702461
vt 0.182084 0.548443
vt 0.150019 0.702461
vt 0.150019 0.548443
vt 0.552291 0.778145
vt 0.552291 0.548443
vt 0.584356 0.548443
vt 0.584356 0.778145
vt 0.616421 0.548443
vt 0.616421 0.778145
vt 0.648485 0.548443
vt 0.648485 0.778145
vt 0.680550 0.548443
vt 0.680550 0.778145
vt 0.015929 0.690351
vt 0.015929 0.548443
vt 0.047993 0.548443
vt 0.047993 0.690351
vt 0.080058 0.548443
vt 0.080058 0.690351
vt 0.112123 0.548443
vt 0.112123 0.690351
vt 0.144187 0.548443
vt 0.144187 0.690351
vt 0.202173 0.706255
vt 0.279371 0.706255
vt 0.279371 0.738320
vt 0.202173 0.738320
vt 0.279371 0.770384
vt 0.202173 0.770384
vt 0.279371 0.802449
vt 0.202173 0.802449
vt 0.279371 0.834513
vt 0.202173 0.834513
vt 0.477234 0.839433
vt 0.400414 0.839433
vt 0.400414 0.807368
vt 0.477234 0.807368
vt 0.400414 0.775304
vt 0.477234 0.775304
vt 0.400414 0.743239
vt 0.477234 0.743239
vt 0.400414 0.711175
vt 0.477234 0.711175
vt 0.579527 0.910198
vt 0.483787 0.910198
vt 0.483787 0.878133
vt 0.579527 0.878133
vt 0.483787 0.846069
vt 0.579527 0.846069
vt 0.483787 0.814004
vt 0.579527 0.814004
vt 0.483787 0.781939
vt 0.579527 0.781939
vt 0.373882 0.344085
vt 0.450702 0.344085
vt 0.450702 0.451557
vt 0.373504 0.451557
vt 0.373504 0.544649
vt 0.231596 0.544649
vt 0.231596 0.451557
vt 0.001894 0.451557
vt 0.001894 0.339923
vt 0.062299 0.264711
vt 0.122421 0.178337
vt 0.151004 0.132831
vt 0.176772 0.088272
vt 0.199725 0.044659
vt 0.219865 0.001992
vt 0.373882 0.001992
vt 0.231217 0.185148
vt 0.212178 0.223889
vt 0.189875 0.263292
vt 0.164308 0.303358
vt 0.135477 0.344085
vt 0.231217 0.344085
vt 0.829837 0.544649
vt 0.675820 0.544649
vt 0.655680 0.501982
vt 0.632727 0.458369
vt 0.606959 0.413809
vt 0.578376 0.368304
vt 0.518254 0.281929
vt 0.457849 0.206718
vt 0.457849 0.095084
vt 0.687551 0.095084
vt 0.687551 0.001992
vt 0.829459 0.001992
vt 0.829459 0.095084
vt 0.906657 0.095084
vt 0.906657 0.202556
vt 0.829837 0.202556
vt 0.687172 0.202556
vt 0.591431 0.202556
vt 0.620263 0.243283
vt 0.645830 0.283349
vt 0.668133 0.322752
vt 0.687172 0.361493
vn 0.000000 0.000000 -1.000000
vn 0.000000 0.000000 -1.000000
vn 0.000000 0.000000 -1.000000
vn 0.000000 0.000000 -1.000000
vn 0.000000 0.000000 -1.000000
vn 0.000000 0.000000 -1.000000
vn 0.000000 0.000000 -1.000000
vn 0.000000 0.000000 -1.000000
vn 0.000000 0.000000 -1.000000
vn 0.000000 0.000000 -1.000000
vn 0.000000 0.000000 -1.000000
vn 0.000000 0.000000 -1.000000
vn 0.000000 0.000000 -1.000000
vn 0.000000 0.000000 -1.000000
vn 0.000000 0.000000 -1.000000
vn 0.000000 0.000000 -1.000000
vn 0.000000 0.000000 -1.000000
vn 0.000000 0.000000 -1.000000
vn 0.000000 0.000000 -1.000000
vn 0.000000 0.000000 -1.000000
vn 0.000000 0.000000 -1.000000
vn 0.000000 0.000000 -1.000000
vn 0.000000 1.000000 0.000000
vn 0.000000 1.000000 0.000000
vn 0.000000 1.000000 0.000000
vn 0.000000 1.000000 0.000000
vn -0.904324 0.426847 0.000000
vn -0.894623 0.446821 0.000000
vn -0.894623 0.446821 0.000000
vn -0.904324 0.426847 0.000000
vn -0.875263 0.483648 0.000000
vn -0.875263 0.483648 0.000000
vn -0.856181 0.516676 0.000000
vn -0.856181 0.516676 0.000000
vn -0.829765 0.558112 0.000000
vn -0.829765 0.558112 0.000000
vn -0.801574 0.597895 0.000000
vn -0.801574 0.597895 0.000000
vn -0.779671 0.626189 0.000000
vn -0.779671 0.626189 0.000000
vn -1.000000 0.000000 0.000000
vn -1.000000 0.000000 0.000000
vn -1.000000 0.000000 0.000000
vn -1.000000 0.000000 0.000000
vn 0.000000 -1.000000 0.000000
vn 0.000000 -1.000000 0.000000
vn 0.000000 -1.000000 0.000000
vn 0.000000 -1.000000 0.000000
vn -1.000000 0.000000 0.000000
vn -1.000000 0.000000 0.000000
vn -1.000000 0.000000 0.000000
vn -1.000000 0.000000 0.000000
vn 0.000000 -1.000000 0.000000
vn 0.000000 -1.000000 0.000000
vn 0.000000 -1.000000 0.000000
vn 0.000000 -1.000000 0.000000
vn 1.000000 0.000000 0.000000
vn 1.000000 0.000000 0.000000
vn 1.000000 0.000000 0.000000
vn 1.000000 0.000000 0.000000
vn 0.000000 -1.000000 0.000000
vn 0.000000 -1.000000 0.000000
vn 0.000000 -1.000000 0.000000
vn 0.000000 -1.000000 0.000000
vn 1.000000 0.000000 0.000000
vn 1.000000 0.000000 0.000000
vn 1.000000 0.000000 0.000000
vn 1.000000 0.000000 0.000000
vn 0.000000 1.000000 0.000000
vn 0.000000 1.000000 0.000000
vn 0.000000 1.000000 0.000000
vn 0.000000 1.000000 0.000000
vn 1.000000 0.000000 0.000000
vn 1.000000 0.000000 0.000000
vn 1.000000 0.000000 0.000000
vn 1.000000 0.000000 0.000000
vn 0.000000 1.000000 0.000000
vn 0.000000 1.000000 0.000000
vn 0.000000 1.000000 0.000000
vn 0.000000 1.000000 0.000000
vn 0.816192 -0.577781 0.000000
vn 0.829501 -0.558505 0.000000
vn 0.829501 -0.558505 0.000000
vn 0.816192 -0.577781 0.000000
vn 0.856592 -0.515995 0.000000
vn 0.856592 -0.515995 0.000000
vn 0.883918 -0.467642 0.000000
vn 0.883918 -0.467642 0.000000
vn 0.897475 -0.441066 0.000000
vn 0.897475 -0.441066 0.000000
vn -1.000000 0.000000 0.000000
vn -1.000000 0.000000 0.000000
vn -1.000000 0.000000 0.000000
vn -1.000000 0.000000 0.000000
vn 0.000000 1.000000 0.000000
vn 0.000000 1.000000 0.000000
vn -0.894623 0.446821 0.000000
vn -0.904324 0.426847 0.000000
vn -0.875263 0.483648 0.000000
vn -0.856181 0.516676 0.000000
vn -0.829765 0.558112 0.000000
vn -0.801574 0.597895 0.000000
vn -0.779671 0.626189 0.000000
vn -1.000000 0.000000 0.000000
vn -1.000000 0.000000 0.000000
vn 0.000000 -1.000000 0.000000
vn 0.000000 -1.000000 0.000000
vn -1.000000 0.000000 0.000000
vn -1.000000 0.000000 0.000000
vn 0.000000 -1.000000 0.000000
vn 0.000000 -1.000000 0.000000
vn 1.000000 0.000000 0.000000
vn 1.000000 0.000000 0.000000
vn 0.000000 -1.000000 0.000000
vn 0.000000 -1.000000 0.000000
vn 1.000000 0.000000 0.000000
vn 1.000000 0.000000 0.000000
vn 0.000000 1.000000 0.000000
vn 0.000000 1.000000 0.000000
vn 1.000000 0.000000 0.000000
vn 1.000000 0.000000 0.000000
vn 0.000000 1.000000 0.000000
vn 0.000000 1.000000 0.000000
vn 0.829501 -0.558505 0.000000
vn 0.816192 -0.577781 0.000000
vn 0.856592 -0.515995 0.000000
vn 0.883918 -0.467642 0.000000
vn 0.897475 -0.441066 0.000000
vn -1.000000 0.000000 0.000000
vn -1.000000 0.000000 0.000000
vn 0.000000 1.000000 0.000000
vn 0.000000 1.000000 0.000000
vn -0.894623 0.446821 0.000000
vn -0.904324 0.426847 0.000000
vn -0.875263 0.483648 0.000000
vn -0.856181 0.516676 0.000000
vn -0.829765 0.558112 0.000000
vn -0.801574 0.597896 0.000000
vn -0.779671 0.626189 0.000000
vn -1.000000 0.000000 0.000000
vn -1.000000 0.000000 0.000000
vn 0.000000 -1.000000 0.000000
vn 0.000000 -1.000000 0.000000
vn -1.000000 0.000000 0.000000
vn -1.000000 0.000000 0.000000
vn 0.000000 -1.000000 0.000000
vn 0.000000 -1.000000 0.000000
vn 1.000000 0.000000 0.000000
vn 1.000000 0.000000 0.000000
vn 0.000000 -1.000000 0.000000
vn 0.000000 -1.000000 0.000000
vn 1.000000 0.000000 0.000000
vn 1.000000 0.000000 0.000000
vn 0.000000 1.000000 0.000000
vn 0.000000 1.000000 0.000000
vn 1.000000 0.000000 0.000000
vn 1.000000 0.000000 0.000000
vn 0.000000 1.000000 0.000000
vn 0.000000 1.000000 0.000000
vn 0.829501 -0.558505 0.000000
vn 0.816192 -0.577781 0.000000
vn 0.856592 -0.515995 0.000000
vn 0.883918 -0.467642 0.000000
vn 0.897475 -0.441066 0.000000
vn -1.000000 0.000000 0.000000
vn -1.000000 0.000000 0.000000
vn 0.000000 1.000000 0.000000
vn 0.000000 1.000000 0.000000
vn -0.894623 0.446821 0.000000
vn -0.904324 0.426847 0.000000
vn -0.875263 0.483648 0.000000
vn -0.856181 0.516676 0.000000
vn -0.829765 0.558112 0.000000
vn -0.801574 0.597895 0.000000
vn -0.779671 0.626189 0.000000
vn -1.000000 0.000000 0.000000
vn -1.000000 0.000000 0.000000
vn 0.000000 -1.000000 0.000000
vn 0.000000 -1.000000 0.000000
vn -1.000000 0.000000 0.000000
vn -1.000000 0.000000 0.000000
vn 0.000000 -1.000000 0.000000
vn 0.000000 -1.000000 0.000000
vn 1.000000 0.000000 0.000000
vn 1.000000 0.000000 0.000000
vn 0.000000 -1.000000 0.000000
vn 0.000000 -1.000000 0.000000
vn 1.000000 0.000000 0.000000
vn 1.000000 0.000000 0.000000
vn 0.000000 1.000000 0.000000
vn 0.000000 1.000000 0.000000
vn 1.000000 0.000000 0.000000
vn 1.000000 0.000000 0.000000
vn 0.000000 1.000000 0.000000
vn 0.000000 1.000000 0.000000
vn 0.829501 -0.558505 0.000000
vn 0.816192 -0.577781 0.000000
vn 0.856592 -0.515995 0.000000
vn 0.883918 -0.467642 0.000000
vn 0.897475 -0.441066 0.000000
vn -1.000000 0.000000 0.000000
vn -1.000000 0.000000 0.000000
vn 0.000000 0.000000 1.000000
vn 0.000000 0.000000 1.000000
vn 0.000000 0.000000 1.000000
vn 0.000000 0.000000 1.000000
vn 0.000000 0.000000 1.000000
vn 0.000000 0.000000 1.000000
vn 0.000000 0.000000 1.000000
vn 0.000000 0.000000 1.000000
vn 0.000000 0.000000 1.000000
vn 0.000000 0.000000 1.000000
vn 0.000000 0.000000 1.000000
vn 0.000000 0.000000 1.000000
vn 0.000000 0.000000 1.000000
vn 0.000000 0.000000 1.000000
vn 0.000000 0.000000 1.000000
vn 0.000000 0.000000 1.000000
vn 0.000000 0.000000 1.000000
vn 0.000000 0.000000 1.000000
vn 0.000000 0.000000 1.000000
vn 0.000000 0.000000 1.000000
vn 0.000000 0.000000 1.000000
vn 0.000000 0.000000 1.000000
s off
g typeMesh1
usemtl typeBlinnSG
f 16/176/1 15/177/2 14/178/3 13/179/4 12/180/5 11/181/6 10/182/7 9/183/8 8/184/9 7/185/10 6/186/11 5/187/12 4/188/13 3/189/14 2/190/15 1/191/16 22/192/17 21/193/18 20/194/19 19/195/20 18/196/21 17/197/22
s 1
f 1/116/23 2/117/24 24/118/25 23/119/26
s 2
f 2/1/27 3/2/28 25/3/29 24/4/30
f 3/2/28 4/5/31 26/6/32 25/3/29
f 4/5/31 5/9/33 27/10/34 26/6/32
f 5/9/33 6/14/35 28/15/36 27/10/34
f 6/14/35 7/20/37 29/21/38 28/15/36
f 7/20/37 8/25/39 30/26/40 29/21/38
s 3
f 8/25/41 9/30/42 31/31/43 30/26/44
s 4
f 9/126/45 10/127/46 32/128/47 31/129/48
s 5
f 10/41/49 11/42/50 33/43/51 32/44/52
s 6
f 11/136/53 12/137/54 34/138/55 33/139/56
s 7
f 12/51/57 13/52/58 35/53/59 34/54/60
s 8
f 13/146/61 14/147/62 36/148/63 35/149/64
s 9
f 14/61/65 15/62/66 37/63/67 36/64/68
s 10
f 15/156/69 16/157/70 38/158/71 37/159/72
s 11
f 16/71/73 1/72/74 23/73/75 38/74/76
s 12
f 17/166/77 18/167/78 40/168/79 39/169/80
s 13
f 18/95/81 19/89/82 41/90/83 40/96/84
f 19/89/82 20/81/85 42/84/86 41/90/83
f 20/81/85 21/82/87 43/83/88 42/84/86
f 21/82/87 22/85/89 44/86/90 43/83/88
s 14
f 22/106/91 17/107/92 39/108/93 44/109/94
s 1
f 23/119/26 24/118/25 46/120/95 45/121/96
s 2
f 24/4/30 25/3/29 47/7/97 46/8/98
f 25/3/29 26/6/32 48/11/99 47/7/97
f 26/6/32 27/10/34 49/16/100 48/11/99
f 27/10/34 28/15/36 50/22/101 49/16/100
f 28/15/36 29/21/38 51/27/102 50/22/101
f 29/21/38 30/26/40 52/32/103 51/27/102
s 3
f 30/26/44 31/31/43 53/35/104 52/32/105
s 4
f 31/129/48 32/128/47 54/130/106 53/131/107
s 5
f 32/44/52 33/43/51 55/45/108 54/46/109
s 6
f 33/139/56 34/138/55 56/140/110 55/141/111
s 7
f 34/54/60 35/53/59 57/55/112 56/56/113
s 8
f 35/149/64 36/148/63 58/150/114 57/151/115
s 9
f 36/64/68 37/63/67 59/65/116 58/66/117
s 10
f 37/159/72 38/158/71 60/160/118 59/161/119
s 11
f 38/74/76 23/73/75 45/75/120 60/76/121
s 12
f 39/169/80 40/168/79 62/170/122 61/171/123
s 13
f 40/96/84 41/90/83 63/94/124 62/101/125
f 41/90/83 42/84/86 64/88/126 63/94/124
f 42/84/86 43/83/88 65/87/127 64/88/126
f 43/83/88 44/86/90 66/91/128 65/87/127
s 14
f 44/109/94 39/108/93 61/110/129 66/111/130
s 1
f 45/121/96 46/120/95 68/122/131 67/123/132
s 2
f 46/8/98 47/7/97 69/12/133 68/13/134
f 47/7/97 48/11/99 70/17/135 69/12/133
f 48/11/99 49/16/100 71/23/136 70/17/135
f 49/16/100 50/22/101 72/28/137 71/23/136
f 50/22/101 51/27/102 73/33/138 72/28/137
f 51/27/102 52/32/103 74/36/139 73/33/138
s 3
f 52/32/105 53/35/104 75/38/140 74/36/141
s 4
f 53/131/107 54/130/106 76/132/142 75/133/143
s 5
f 54/46/109 55/45/108 77/47/144 76/48/145
s 6
f 55/141/111 56/140/110 78/142/146 77/143/147
s 7
f 56/56/113 57/55/112 79/57/148 78/58/149
s 8
f 57/151/115 58/150/114 80/152/150 79/153/151
s 9
f 58/66/117 59/65/116 81/67/152 80/68/153
s 10
f 59/161/119 60/160/118 82/162/154 81/163/155
s 11
f 60/76/121 45/75/120 67/77/156 82/78/157
s 12
f 61/171/123 62/170/122 84/172/158 83/173/159
s 13
f 62/101/125 63/94/124 85/100/160 84/104/161
f 63/94/124 64/88/126 86/93/162 85/100/160
f 64/88/126 65/87/127 87/92/163 86/93/162
f 65/87/127 66/91/128 88/97/164 87/92/163
s 14
f 66/111/130 61/110/129 83/112/165 88/113/166
s 1
f 67/123/132 68/122/131 90/124/167 89/125/168
s 2
f 68/13/134 69/12/133 91/18/169 90/19/170
f 69/12/133 70/17/135 92/24/171 91/18/169
f 70/17/135 71/23/136 93/29/172 92/24/171
f 71/23/136 72/28/137 94/34/173 93/29/172
f 72/28/137 73/33/138 95/37/174 94/34/173
f 73/33/138 74/36/139 96/39/175 95/37/174
s 3
f 74/36/141 75/38/140 97/40/176 96/39/177
s 4
f 75/133/143 76/132/142 98/134/178 97/135/179
s 5
f 76/48/145 77/47/144 99/49/180 98/50/181
s 6
f 77/143/147 78/142/146 100/144/182 99/145/183
s 7
f 78/58/149 79/57/148 101/59/184 100/60/185
s 8
f 79/153/151 80/152/150 102/154/186 101/155/187
s 9
f 80/68/153 81/67/152 103/69/188 102/70/189
s 10
f 81/163/155 82/162/154 104/164/190 103/165/191
s 11
f 82/78/157 67/77/156 89/79/192 104/80/193
s 12
f 83/173/159 84/172/158 106/174/194 105/175/195
s 13
f 84/104/161 85/100/160 107/103/196 106/105/197
f 85/100/160 86/93/162 108/99/198 107/103/196
f 86/93/162 87/92/163 109/98/199 108/99/198
f 87/92/163 88/97/164 110/102/200 109/98/199
s 14
f 88/113/166 83/112/165 105/114/201 110/115/202
s off
f 89/198/203 90/199/204 91/200/205 92/201/206 93/202/207 94/203/208 95/204/209 96/205/210 97/206/211 98/207/212 99/208/213 100/209/214 101/210/215 102/211/216 103/212/217 104/213/218 105/214/219 106/215/220 107/216/221 108/217/222 109/218/223 110/219/224
